#tb 0: 1/25
#media_type 0: video
#codec_id 0: jpegxl
#dimensions 0: 8x8
#sar 0: 0/1
0,          0,          0,        1,      104, 0xd12d1d10
0,          1,          1,        1,      104, 0xd12d1d10
0,          2,          2,        1,      104, 0xd12d1d10
0,          3,          3,        1,      104, 0xd12d1d10
